<svg version="1.1" id="Layer_1" xmlns="http://www.w3.org/2000/svg" xmlns:xlink="http://www.w3.org/1999/xlink" x="0px" y="0px"
	 width="100%" viewBox="0 0 560 1024" enable-background="new 0 0 560 1024" xml:space="preserve">
<path fill="#000000" opacity="1.000000" stroke="none" 
	d="
M293.331299,646.328613 
	C279.875458,661.839417 266.219360,676.680237 250.927643,689.887939 
	C237.120834,701.813110 222.429489,712.585571 204.932404,718.448242 
	C167.580719,730.963318 127.825188,719.485352 101.497307,688.749512 
	C86.805611,671.597961 78.452705,651.755615 75.766960,629.175598 
	C70.379265,583.879639 96.954300,539.225525 134.698029,522.118530 
	C137.196075,520.986328 139.574020,518.569397 142.804779,519.940186 
	C143.276718,522.309875 141.475113,523.058655 140.359985,524.132263 
	C113.698051,549.802490 116.854652,598.497314 157.694717,612.882751 
	C168.460541,616.674866 179.882111,615.727295 190.820404,613.334045 
	C213.747162,608.317627 233.703522,596.318970 253.984131,585.191528 
	C254.650330,584.826050 255.143295,584.144775 256.140106,583.216858 
	C192.695999,569.819824 145.499634,536.004944 120.355225,475.793488 
	C102.748619,433.632172 103.707443,390.551117 122.410095,348.790039 
	C143.479126,301.745148 178.693527,269.261169 227.668915,252.471237 
	C242.121902,247.516388 257.048065,243.973694 272.411591,244.195618 
	C272.780640,246.341080 272.430511,247.137680 271.608032,247.478333 
	C258.217712,253.024490 251.450043,264.465759 246.044540,276.828369 
	C238.110046,294.974884 234.610229,314.264282 231.887146,333.783691 
	C227.685043,363.904724 226.840515,394.167206 227.244263,424.494843 
	C227.570053,448.966827 228.645126,473.448090 232.407852,497.638062 
	C235.835251,519.672546 240.493896,541.516113 251.843597,561.210938 
	C254.860123,566.445435 258.612183,571.080261 263.113098,575.141602 
	C265.519653,577.313049 267.669250,577.747742 270.678436,576.029053 
	C287.014496,566.698486 303.382233,557.382507 321.458527,551.692932 
	C325.034271,550.567505 326.061981,547.742493 327.190979,544.743408 
	C333.980225,526.708618 337.545197,507.948456 339.633636,488.881836 
	C341.427277,472.506287 342.643005,456.104858 343.077850,439.603455 
	C343.640076,418.268158 343.458588,396.942535 342.681427,375.652008 
	C342.064026,358.738190 340.231964,341.866394 337.431305,325.090912 
	C334.874695,309.777069 331.713196,294.706116 325.953766,280.275360 
	C320.420837,266.412170 313.392914,253.695923 298.767242,247.261520 
	C298.277679,247.046127 298.032135,246.276047 297.573975,245.623764 
	C300.014221,242.885590 302.995911,243.862030 305.594391,244.158295 
	C332.468811,247.222198 357.563171,255.565872 380.486816,270.042084 
	C416.223938,292.609985 440.691101,324.172821 454.276398,364.047852 
	C461.442535,385.081665 463.230591,406.800262 461.449463,429.018921 
	C458.157867,470.079315 440.820496,504.272278 412.146973,533.180176 
	C408.754730,536.600159 404.893433,539.552063 401.298187,542.775085 
	C399.985840,543.951599 398.134888,544.716675 397.747009,547.518188 
	C442.937866,562.040344 472.765564,592.648010 488.512024,637.147766 
	C491.980865,646.950867 496.067108,656.938599 493.765015,667.959290 
	C491.147644,667.677307 491.550781,665.796814 491.292023,664.514771 
	C483.593536,626.370483 460.717041,600.987244 424.501923,588.514160 
	C394.045715,578.024597 365.501312,584.035339 339.549255,603.200500 
	C322.553589,615.751465 307.768402,630.569458 293.331299,646.328613 
z"/>
<path fill="#000000" opacity="1.000000" stroke="none" 
	d="
M352.475769,813.527832 
	C354.838135,814.770630 356.867615,815.862427 358.884399,816.977295 
	C358.976471,817.028198 358.953156,817.287903 358.996613,817.520020 
	C358.404816,819.385193 356.718536,819.327271 355.325592,819.145020 
	C316.253571,814.031189 282.117371,799.816467 260.628265,764.651733 
	C241.238953,732.923035 251.253387,695.335754 282.625305,676.846191 
	C315.492065,657.475586 360.433807,675.774292 370.344360,712.521301 
	C376.621918,735.797607 371.745850,756.169678 355.097504,773.787964 
	C350.303650,778.861084 346.106659,784.526733 343.945465,791.365479 
	C341.226288,799.969849 344.442535,808.574463 352.475769,813.527832 
z"/>
<path fill="#000000" opacity="1.000000" stroke="none" 
	d="
M418.250549,173.079285 
	C411.544983,188.814774 398.958069,198.228683 385.207458,206.398178 
	C379.203918,209.964996 372.916443,213.056122 367.266754,217.209167 
	C355.572266,225.805695 353.308167,238.128677 361.063049,250.461746 
	C362.315704,252.453918 364.529633,254.076202 364.230133,256.727783 
	C362.764069,257.929230 361.775757,257.121643 360.901917,256.388245 
	C339.421204,238.360611 320.095581,218.401871 308.761078,192.306625 
	C300.657227,173.649170 297.363495,153.886154 303.191467,133.890640 
	C309.375122,112.674843 323.796326,98.117889 344.894806,92.503792 
	C378.364655,83.597832 409.113068,100.107834 419.697754,134.038467 
	C423.727356,146.955780 423.199127,159.972549 418.250549,173.079285 
z"/>
<path fill="#000000" opacity="1.000000" stroke="none" 
	d="
M484.905029,748.478149 
	C484.811279,743.891113 486.886444,743.294922 490.333435,744.851257 
	C492.601013,745.875061 494.853149,746.942993 497.167358,747.850464 
	C499.147614,748.627136 501.019592,749.452637 500.333344,752.054321 
	C499.729340,754.344360 497.848602,755.023804 495.699860,755.013123 
	C494.578491,755.007568 493.458160,754.798645 492.234985,754.670898 
	C492.401001,755.201477 492.409149,755.557861 492.590332,755.755432 
	C494.344421,757.667908 498.251465,758.771790 496.009186,762.349304 
	C493.972992,765.598083 491.093475,763.835693 488.506012,762.616943 
	C486.857605,761.840515 485.148010,761.193787 483.463898,760.493530 
	C480.266571,759.164062 478.683929,757.597290 482.906403,755.510986 
	C484.094696,754.923889 483.700623,754.297852 483.319000,753.584351 
	C482.193604,751.480286 483.526733,750.151062 484.905029,748.478149 
z"/>
<path fill="#000000" opacity="1.000000" stroke="none" 
	d="
M382.085144,826.972290 
	C378.235168,827.889404 376.664520,826.210388 376.842010,822.859192 
	C376.999908,819.877991 377.383484,816.897095 377.868561,813.949158 
	C378.165619,812.144165 378.960999,811.136719 381.332794,811.657349 
	C384.313995,812.311584 387.576019,812.838318 390.500336,812.281921 
	C393.552002,811.701172 394.145172,812.881287 394.213440,815.197449 
	C394.296753,818.023560 394.236694,820.857788 394.128479,823.684326 
	C394.050629,825.716309 393.842865,827.831543 391.270966,828.299988 
	C388.531250,828.798889 387.401947,826.991699 386.606750,824.802307 
	C386.328918,824.037476 386.008698,823.288025 385.657104,822.403992 
	C383.810211,823.531494 384.201294,825.984863 382.085144,826.972290 
z"/>
<path fill="#000000" opacity="1.000000" stroke="none" 
	d="
M436.385498,801.270874 
	C443.280884,797.378723 447.393768,798.274841 450.316162,804.048157 
	C452.756195,808.868591 449.419983,814.980774 443.983154,815.650513 
	C441.238312,815.988708 435.733459,811.300232 434.047974,807.192383 
	C433.015259,804.675537 433.284668,802.622925 436.385498,801.270874 
M442.053711,805.952881 
	C444.246552,807.073914 441.622864,809.247375 443.070312,810.881958 
	C445.469147,809.602295 446.394684,807.923950 444.986298,805.648743 
	C444.122803,804.253784 442.742126,802.969727 442.053711,805.952881 
z"/>
<path fill="#000000" opacity="1.000000" stroke="none" 
	d="
M488.824188,699.022949 
	C489.771240,692.752991 493.745361,689.769897 499.280853,690.957397 
	C502.836487,691.720093 505.381042,694.011108 505.901855,697.596130 
	C506.409241,701.088867 504.654175,703.677612 501.121399,704.792908 
	C500.804535,704.892944 500.493530,705.015320 500.187469,705.145386 
	C491.920624,708.658508 490.671112,708.030762 488.824188,699.022949 
M500.587433,698.316406 
	C499.989258,696.139160 498.424988,695.417725 496.456146,696.052856 
	C494.841431,696.573730 492.857361,697.194763 493.862305,700.286987 
	C495.806488,697.688416 498.507172,700.967834 500.587433,698.316406 
z"/>
<path fill="#000000" opacity="1.000000" stroke="none" 
	d="
M477.445374,765.844299 
	C480.198578,765.566345 482.429840,765.690491 484.472229,767.166992 
	C489.197662,770.583008 489.971436,774.689270 486.567200,778.902588 
	C483.139038,783.145508 478.510010,783.154480 474.125946,778.926636 
	C470.323547,775.259766 470.413757,771.031311 474.465332,767.332947 
	C475.168427,766.691223 476.173767,766.380676 477.445374,765.844299 
M479.204620,775.981995 
	C480.799805,776.619263 482.210693,776.612915 482.716034,774.621643 
	C483.150238,772.910889 482.179779,771.780151 480.809875,770.947876 
	C479.892426,770.390625 478.825104,770.179199 478.078094,771.043823 
	C476.656982,772.688782 476.683899,774.328674 479.204620,775.981995 
z"/>
<path fill="#000000" opacity="1.000000" stroke="none" 
	d="
M430.299011,821.744202 
	C422.999878,824.648804 420.870972,823.464722 419.689545,816.103210 
	C419.495331,814.893127 418.933167,813.968384 418.310059,812.981628 
	C417.452423,811.623413 416.080231,810.043762 417.825653,808.595154 
	C419.489868,807.213989 420.879639,808.541504 422.110504,809.726074 
	C422.571899,810.170166 423.063293,810.583130 423.865204,811.300110 
	C424.872009,809.388489 423.024628,805.873047 426.621613,806.013672 
	C429.436859,806.123657 429.623138,808.608093 430.197723,810.686218 
	C430.768890,812.752258 431.611298,814.745728 432.135651,816.821350 
	C432.591370,818.625305 432.766449,820.498779 430.299011,821.744202 
z"/>
<path fill="#000000" opacity="1.000000" stroke="none" 
	d="
M464.540588,780.523560 
	C467.777863,780.562866 476.661896,787.496460 476.452972,789.762573 
	C476.125519,793.314941 473.059387,794.832642 470.383362,796.475952 
	C468.020782,797.926697 466.129578,796.800354 464.785004,794.932129 
	C463.248688,792.797485 462.261261,790.257812 459.347900,789.460754 
	C458.548340,789.242065 458.068726,788.376709 458.224152,787.453918 
	C458.412018,786.338928 459.204163,785.616394 460.269989,785.606384 
	C461.864502,785.591370 463.461487,785.838074 465.100403,785.977173 
	C465.390564,784.029297 462.864899,782.713379 464.540588,780.523560 
z"/>
<path fill="#000000" opacity="1.000000" stroke="none" 
	d="
M402.736938,822.217773 
	C401.471649,819.839661 400.415985,817.772278 399.338287,815.716431 
	C398.715302,814.528137 397.901367,813.299194 399.201996,812.123413 
	C400.184845,811.234985 401.525146,811.372620 402.473724,812.016113 
	C405.032257,813.751953 407.016327,813.427429 408.876984,810.957703 
	C409.620544,809.970703 410.861298,809.741394 412.010864,810.505066 
	C412.957642,811.134155 413.097443,812.106812 412.898346,813.148254 
	C412.370605,815.908936 412.068817,818.743103 411.221283,821.402710 
	C410.559875,823.478394 410.541656,826.436462 407.665955,826.895752 
	C404.587891,827.387390 404.306458,824.236572 402.736938,822.217773 
z"/>
<path fill="#000000" opacity="1.000000" stroke="none" 
	d="
M495.747620,728.183960 
	C498.458893,729.832336 501.042328,731.063843 503.194305,732.823120 
	C505.681305,734.856323 505.005463,737.146973 502.174561,738.034607 
	C498.738159,739.112061 495.103638,739.598816 491.527283,740.168213 
	C490.104340,740.394775 488.410095,740.513123 487.677399,738.754700 
	C487.043365,737.232971 488.051178,736.289001 489.161072,735.459595 
	C490.489349,734.466919 491.044495,733.182983 490.510406,731.557068 
	C489.983734,729.953796 488.024078,728.300720 490.101074,726.710693 
	C492.157532,725.136414 493.740631,727.150757 495.747620,728.183960 
z"/>
<path fill="#000000" opacity="1.000000" stroke="none" 
	d="
M492.830048,722.045532 
	C488.676392,721.816223 489.165771,719.113647 489.412048,716.632019 
	C489.660248,714.130798 490.629578,712.032166 493.519409,711.931274 
	C496.646088,711.822083 499.784973,711.918213 502.913025,712.053406 
	C504.433990,712.119080 506.049042,712.531860 506.073486,714.466003 
	C506.102081,716.731262 504.208038,717.264709 502.604218,716.999329 
	C498.101898,716.254272 495.196289,718.120056 492.830048,722.045532 
z"/>
</svg>